<?xml version="1.0" encoding="utf-8"?>
<!-- Generator: Adobe Illustrator 24.2.0, SVG Export Plug-In . SVG Version: 6.00 Build 0)  -->
<svg version="1.1" id="b2ccb611-33ed-4c55-a318-024416acf54b"
	 xmlns="http://www.w3.org/2000/svg" xmlns:xlink="http://www.w3.org/1999/xlink" x="0px" y="0px" viewBox="0 0 64 64"
	 enable-background="new 0 0 64 64" xml:space="preserve">
<path fill-rule="evenodd" clip-rule="evenodd" d="M31.9,12.4c-1.9,0-3.5,1.6-3.5,3.5s1.6,3.5,3.5,3.5s3.5-1.6,3.5-3.5c0,0,0,0,0,0
	C35.4,14,33.9,12.4,31.9,12.4z M62.5,32.2c0-0.1,0-0.3,0-0.4c0-0.2,0-0.5,0-0.7c-0.3-7.4-3.3-14.5-8.4-19.8
	C48.9,4.3,40.8,0.1,32.1,0C25.4,0,19,2.6,14,7.1c-1.3,1.1-2.5,2.3-3.7,3.7c-5.7,5.7-8.8,13.4-8.8,21.4c0,0.2,0,0.4,0,0.6v0.7
	C1.8,40.8,4.8,47.7,9.8,53c9.3,12.2,26.7,14.6,38.9,5.3c1.7-1.3,3.3-2.8,4.7-4.5c5.2-5.1,8.4-11.9,9-19.2c0-0.1,0-0.2,0-0.3
	c0-0.2,0-0.4,0-0.7C62.4,33.2,62.4,32.8,62.5,32.2L62.5,32.2L62.5,32.2z M46.5,51.8c-2.4,2.5-5.3,4.4-8.6,5.4
	c-0.2-0.2-0.4-0.4-0.5-0.7c0,0,0-5-0.1-7.6c0-0.6-0.2-1.1-0.5-1.6c-0.2-0.3-0.5-0.7-0.8-1c0,0,0-0.2,0-0.2s1.5-0.2,2.3-0.4
	c2.5-0.4,4.7-1.8,6.2-3.8c0.8-1.4,1.3-2.9,1.4-4.5c0.1-0.6,0.1-1.3,0.1-1.9c0-1-0.1-1.9-0.4-2.9c-0.4-1.2-1-2.2-1.9-3.2
	c0-0.2,0.2-0.8,0.4-1.5c0.1-0.6,0.1-1.3,0-1.9c-0.1-0.8-0.3-1.6-0.6-2.4c-0.5-0.1-1-0.1-1.5,0c-1.6,0.4-3.2,1.2-4.5,2.2
	c-0.1,0.1-0.3,0.1-0.5,0c-2.9-0.9-7.8-1-10.6,0c-0.1,0.1-0.3,0.1-0.4,0c-1.4-1-3-1.8-4.6-2.2c-0.5-0.1-1-0.1-1.5,0
	c-0.2,0.7-0.4,1.5-0.5,2.2c-0.2,0.7-0.2,1.5,0,2.2c0.1,0.5,0.2,0.9,0.4,1.3c-1,0.9-1.7,2.1-2.1,3.4c-0.2,0.9-0.4,1.8-0.4,2.7
	c0,0.8,0.1,1.6,0.2,2.3c0,0,0.2,1.1,0.6,2.3c0.2,0.6,0.6,1.3,1,1.8c0.5,0.7,1,1.3,1.7,1.8c0.9,0.7,1.8,1.2,2.9,1.6
	c1.3,0.4,2.6,0.7,3.9,0.8c0,0,0,0.1,0,0.1c-0.3,0.3-0.6,0.7-0.8,1.1c-0.3,0.5-0.4,1.1-0.4,1.7c-0.4,0.2-0.8,0.3-1.2,0.4
	c-0.4,0.1-0.9,0.1-1.3,0.1c-0.4,0-0.8,0-1.2-0.1c-0.6-0.1-1.1-0.4-1.5-0.8c-0.2-0.1-0.5-0.4-0.6-0.6c-0.4-0.4-0.5-0.8-0.8-1.2
	c-0.3-0.3-0.5-0.7-0.8-1c-0.5-0.4-1.1-0.7-1.7-1c-0.5-0.1-1-0.1-1.5,0c-0.1,0-0.2,0.1-0.3,0.2c-0.2,0.2,0.2,0.6,0.2,0.6
	c0.4,0.2,0.7,0.5,1.1,0.8c0.5,0.4,1,1,1.4,1.5c0.2,0.3,0.4,0.7,0.6,1.1c0.6,1.6,2,2.8,3.7,3c0.1,0,0.5,0.1,1,0.1c0.5,0,1,0,1.6,0
	c0.8-0.1,0.6-0.1,1.5-0.2c0,0,0,1.4,0,2.7c0,0.5,0,1.1-0.1,1.6c-0.1,0.3-0.2,0.5-0.4,0.6c-3.3-1.1-6.3-3.1-8.7-5.6
	c-3.9-4.8-6-11.9-6-19.4s1.9-14.8,5.8-19.6c2.4-3,5.8-5.2,9.5-6.2C28.2,6,30,5.8,31.9,5.8c1.8,0,3.6,0.2,5.3,0.6
	c2.8,0.8,5.5,2.1,7.8,3.9c5,4.5,7.8,12.4,7.8,21.5C52.8,39.5,50.8,47.1,46.5,51.8L46.5,51.8z M26.1,50.4c-0.1,0.1-0.1,0.1-0.2,0.2
	s-0.6,0-0.6-0.3c0,0,0.1-0.2,0.2-0.3c0.2-0.1,0.4-0.1,0.6,0.1C26.2,50.2,26.2,50.3,26.1,50.4L26.1,50.4z M24.3,50.6
	c-0.2,0.1-0.5,0.1-0.7,0c-0.1-0.1-0.2-0.3-0.1-0.3c0.1-0.1,0.3-0.2,0.5-0.2c0.1,0,0.1,0,0.2,0.1c0.2,0.1,0.2,0.2,0.3,0.2
	C24.5,50.5,24.4,50.6,24.3,50.6C24.3,50.6,24.3,50.6,24.3,50.6L24.3,50.6z M22.5,50.5c-0.3,0.2-1-0.1-0.8-0.4c0-0.1,0.1-0.2,0.2-0.2
	c0.2,0,0.4,0,0.6,0.2C22.7,50.2,22.6,50.4,22.5,50.5L22.5,50.5z M21,49.6c0,0.1-0.3,0-0.5-0.1s-0.3-0.4-0.2-0.4
	c0.2-0.1,0.4-0.1,0.6,0C21,49.2,21,49.4,21,49.6L21,49.6z M19.9,48.4c-0.2,0.2-0.8-0.3-0.7-0.6c0-0.1,0.1-0.1,0.2-0.1
	c0.1,0,0.2,0,0.3,0.1C19.8,47.9,19.9,48.3,19.9,48.4L19.9,48.4z M18.9,47.2c-0.1,0-0.4,0-0.4-0.2c0-0.1-0.1-0.2-0.1-0.3
	c0-0.1,0.2-0.2,0.4,0C18.8,46.7,18.9,47.1,18.9,47.2L18.9,47.2z M18,46.2c-0.1,0-0.3,0-0.4,0c-0.1,0-0.1-0.1-0.1-0.2
	c0-0.1,0.1-0.1,0.1-0.1c0.1-0.1,0.3-0.1,0.4,0C17.9,45.9,18,46.1,18,46.2L18,46.2z"/>
</svg>
