<svg id="e79bdafe-01fe-4178-8d92-747697d217b9" data-name="图层 1" xmlns="http://www.w3.org/2000/svg" viewBox="0 0 64 67.08"><path d="M298.42,400.07a3.66,3.66,0,1,0,3.65,3.65A3.66,3.66,0,0,0,298.42,400.07Zm32,20.68c0-.15,0-.3,0-.46s0-.5,0-.75a31.65,31.65,0,0,0-8.8-20.76,29.12,29.12,0,0,0-23-11.74,28.43,28.43,0,0,0-19,7.47,30.88,30.88,0,0,0-3.83,3.84,31.7,31.7,0,0,0-9.26,22.4c0,.22,0,.43,0,.65l0,.78a31.7,31.7,0,0,0,8.68,20.44,29.12,29.12,0,0,0,45.7.85,31.7,31.7,0,0,0,9.46-20.11,2.45,2.45,0,0,1,0-.27c0-.24,0-.47,0-.72,0-.52,0-1,0-1.57h0Zm-16.79,20.61a21.27,21.27,0,0,1-9,5.67,1.87,1.87,0,0,1-.53-.71s.05-5.2-.09-8a3.52,3.52,0,0,0-.56-1.7,7,7,0,0,0-.79-1c-.05,0,0-.17,0-.18s1.54-.22,2.36-.39a10.26,10.26,0,0,0,6.52-4,10.52,10.52,0,0,0,1.5-4.69,15.44,15.44,0,0,0,.13-2,9.67,9.67,0,0,0-.38-3,9.32,9.32,0,0,0-1.95-3.31c0-.22.26-.86.41-1.57a6.51,6.51,0,0,0,0-2,21.29,21.29,0,0,0-.59-2.51,5.18,5.18,0,0,0-1.55,0,13.08,13.08,0,0,0-4.74,2.3c-.08.08-.29.06-.52,0-3.08-.93-8.13-1.07-11.15,0a.52.52,0,0,1-.43,0,14.07,14.07,0,0,0-4.87-2.31,5.51,5.51,0,0,0-1.55,0,20.84,20.84,0,0,0-.55,2.35,4.34,4.34,0,0,0,0,2.35,4.2,4.2,0,0,0,.45,1.39,7.46,7.46,0,0,0-2.16,3.54,10.35,10.35,0,0,0-.37,2.82,13.35,13.35,0,0,0,.22,2.45s.21,1.2.6,2.36a9.25,9.25,0,0,0,1,1.93,9.06,9.06,0,0,0,1.74,1.9,10.93,10.93,0,0,0,3,1.66,18.48,18.48,0,0,0,4.07.83s0,.1,0,.15a7.73,7.73,0,0,0-.87,1.17,3.58,3.58,0,0,0-.44,1.75,5.94,5.94,0,0,1-1.29.4,6.13,6.13,0,0,1-1.38.14,4.83,4.83,0,0,1-1.26-.13,2.9,2.9,0,0,1-1.55-.8c-.16-.14-.52-.46-.68-.63-.37-.43-.52-.83-.85-1.25a11.5,11.5,0,0,0-.87-1,7.57,7.57,0,0,0-1.79-1,3.42,3.42,0,0,0-1.6,0,.72.72,0,0,0-.3.16c-.18.23.22.65.22.65a13.14,13.14,0,0,1,1.13.8,6.35,6.35,0,0,1,1.43,1.61,12.49,12.49,0,0,1,.62,1.12,4.77,4.77,0,0,0,3.87,3.14c.07,0,.55.09,1.1.13a12.86,12.86,0,0,0,1.64,0c.81-.08.6-.09,1.53-.16,0,0,0,1.51,0,2.83a11.07,11.07,0,0,1-.09,1.71,1.14,1.14,0,0,1-.43.68,21.85,21.85,0,0,1-9.11-5.92c-4.13-5.07-6.34-12.46-6.34-20.31s2-15.49,6.08-20.54a19.24,19.24,0,0,1,10-6.47,22.48,22.48,0,0,1,5.73-.63,26,26,0,0,1,5.58.6,22.65,22.65,0,0,1,8.15,4.11c5.29,4.71,8.17,13,8.22,22.56C320.29,428.48,318.22,436.38,313.59,441.36Zm-21.33-1.45c-.06.08-.12.1-.26.16s-.65,0-.59-.32c0,0,.07-.24.23-.31a.68.68,0,0,1,.64.08A.4.4,0,0,1,292.26,439.91Zm-1.88.21a.65.65,0,0,1-.72,0c-.1-.08-.19-.29-.13-.34a1.09,1.09,0,0,1,.51-.22.56.56,0,0,1,.2.06c.2.11.26.16.28.21A.22.22,0,0,1,290.38,440.12Zm-1.87-.19c-.28.16-1-.06-.88-.44a.34.34,0,0,1,.26-.23.75.75,0,0,1,.62.2C288.71,439.67,288.61,439.88,288.51,439.93Zm-1.61-.88c0,.11-.36,0-.57-.12s-.29-.37-.19-.47a.48.48,0,0,1,.61,0A.77.77,0,0,1,286.9,439.05Zm-1.18-1.32c-.23.21-.81-.34-.73-.58a.26.26,0,0,1,.21-.13.33.33,0,0,1,.28.09C285.65,437.28,285.8,437.63,285.72,437.73Zm-1-1.24c-.06,0-.39,0-.46-.16a.87.87,0,0,1-.06-.32c0-.15.16-.19.41,0C284.67,436,284.79,436.46,284.7,436.49Zm-1-1.05a1.08,1.08,0,0,1-.44,0,.38.38,0,0,1-.13-.18c0-.1.06-.12.09-.13a.57.57,0,0,1,.47,0C283.72,435.17,283.81,435.37,283.66,435.44Z" transform="translate(-266.38 -387.04)" fill="#fff" fill-rule="evenodd"/></svg>