<svg xmlns="http://www.w3.org/2000/svg" display="none">
	<!-- JavaScript -->
	<symbol id="javascript" viewBox="0 0 64 64">
		<path fill="var(--ifm-color-tech-logo-normal)"
			d="M0,0h64v64H0V0 M16.8,53.5c1.4,3,4.2,5.5,9,5.5c5.3,0,9-2.8,9-9.1V29.4h-6v20.4c0,3.1-1.2,3.8-3.2,3.8
	c-2.1,0-2.9-1.4-3.9-3.1L16.8,53.5 M38.1,52.8c1.8,3.5,5.4,6.2,11,6.2c5.7,0,10-3,10-8.4c0-5-2.9-7.3-8-9.5l-1.5-0.6
	c-2.6-1.1-3.7-1.8-3.7-3.6c0-1.5,1.1-2.6,2.9-2.6c1.7,0,2.8,0.7,3.9,2.6l4.7-3.1c-2-3.4-4.7-4.7-8.5-4.7c-5.4,0-8.8,3.4-8.8,7.9
	c0,4.9,2.9,7.2,7.2,9.1l1.5,0.6c2.8,1.2,4.4,2,4.4,4c0,1.7-1.6,3-4.1,3c-3,0-4.7-1.5-5.9-3.7C43,50,38.1,52.8,38.1,52.8z" />
	</symbol>
	<!-- TypeScript -->
	<symbol id="typescript" viewBox="0 0 64 64">
		<path fill="var(--ifm-color-tech-logo-normal)" d="M0,0v64h64V0H0z M48.6,31.1L48.6,31.1c0.6,0,1.3,0,1.8,0.1c2.1,0.2,3.8,1.2,5.2,2.9c0.7,0.9,0.9,1.2,0.9,1.4
	c0,0.1-0.5,0.5-2.1,1.5c-1.5,1-2,1.3-2.1,1.3c-0.1,0-0.4-0.2-0.7-0.7c-0.7-0.9-1.3-1.3-2.4-1.5c-1.1-0.1-2.1,0.2-2.6,0.9
	c-0.4,0.6-0.5,1.6-0.2,2.3c0.4,0.8,1.1,1.3,3.8,2.5c3.1,1.4,4.7,2.3,5.8,3.5c1.2,1.2,1.9,2.7,2.1,4.7c0.1,1,0,2.2-0.3,3.1
	c-0.7,2.3-2.6,4.1-5.3,4.9c-0.8,0.2-1.5,0.4-2.2,0.4c-1.1,0.1-2.6,0-3.5-0.1c-2.3-0.3-5-1.7-6.3-3.2c-0.6-0.8-1.5-2-1.5-2.2
	c0-0.1,0.1-0.2,0.3-0.3c0.6-0.4,4.1-2.4,4.2-2.4c0,0,0.2,0.2,0.4,0.5c0.4,0.6,1.4,1.6,2,2c0.4,0.3,1,0.5,1.6,0.7
	c0.4,0.1,0.6,0.1,1.4,0.1c0.8,0,1,0,1.4-0.1c1-0.3,1.7-0.8,2.1-1.5c0.1-0.3,0.1-0.3,0.1-1V50l-0.2-0.3c-0.4-0.8-1.3-1.4-4.2-2.6
	c-1.3-0.6-2.9-1.4-3.5-1.8c-1.4-0.9-2.4-2-3.1-3.2c-0.6-1.3-0.7-1.7-0.7-3.6c0-1.5,0-1.5,0.3-2.4c0.3-0.9,0.9-1.8,1.5-2.5
	c1.3-1.3,3.1-2.2,5.1-2.4C47.9,31.1,48.3,31.1,48.6,31.1L48.6,31.1z M31.6,31.4L31.6,31.4c3.8,0,6,0,6,0c0.1,0,0.1,0.4,0.1,2.5v2.4
	l-3.8,0l-3.8,0v10.8c0,5.9,0,10.8,0,10.9c0,0.1-0.3,0.1-2.8,0.1h-2.8l0-0.1c0-0.1,0-4.9,0-10.9l0-10.7l-3.8,0l-3.8,0v-2.4
	c0-1.9,0-2.4,0.1-2.5c0.1-0.1,2-0.1,10.3-0.1C28.9,31.4,30.4,31.4,31.6,31.4L31.6,31.4z" />
	</symbol>
	<!-- Vue -->
	<symbol id="vue" viewBox="0 0 64 64">
		<path fill="var(--ifm-color-tech-logo-lighter)" d="M39.3,4.6L32,17.3L24.7,4.6H0.4L32,59.4L63.6,4.6H39.3z" />
		<path fill="var(--ifm-color-tech-logo)" d="M39.3,4.6L32,17.3L24.7,4.6H13l19,32.8L51,4.6H39.3z" />
	</symbol>
	<!-- Nuxt.js -->
	<symbol id="nuxt" viewBox="0 0 64 64">
		<path fill="var(--ifm-color-tech-logo-normal)" d="M52.6,54.1l0.1-0.1c0.1-0.1,0.1-0.2,0.1-0.3l0,0C53,53.1,53,52.5,53,52l0,0c-0.1-0.6-0.3-1.2-0.6-1.7l0,0L38.2,25.4L36,21.6
	l-2.2,3.8L19.7,50.4c-0.3,0.5-0.5,1-0.5,1.6l0,0c-0.1,0.6,0,1.3,0.2,1.9l0,0c0,0.1,0.1,0.2,0.1,0.3l0,0c0.4,0.7,1.3,1.6,3.3,1.6
	h26.4C49.6,55.8,51.7,55.7,52.6,54.1L52.6,54.1z M36,29.2l13,22.8H23L36,29.2z M63.3,50.4l-18.7-33c-0.2-0.3-1.3-2.1-3.2-2.1
	c-0.8,0-2.1,0.4-3,2.1L36,21.6l2.2,3.8l3.3-5.9L60,52h-7c0.1,0.5,0,1.1-0.2,1.6l0,0c0,0.1-0.1,0.2-0.2,0.3l0,0l-0.1,0.1
	c-0.9,1.6-3,1.7-3.4,1.7h11c0.4,0,2.4-0.1,3.4-1.7C64,53.3,64.3,52.1,63.3,50.4L63.3,50.4z M19.5,54.2c0-0.1-0.1-0.2-0.1-0.2l0,0
	c-0.3-0.6-0.3-1.3-0.2-1.9l0,0H4l22.5-39.6l7.4,13l2.1-3.8l-6.4-11.3c-0.2-0.3-1.3-2.1-3.1-2.1c-0.8,0-2.1,0.4-3,2.1l-22.8,40
	c-0.2,0.3-1.1,2.2-0.2,3.8c0.4,0.7,1.3,1.6,3.3,1.6h19.1C20.8,55.8,19.9,54.9,19.5,54.2L19.5,54.2z" />
	</symbol>
	<!-- React.js -->
	<symbol id="react" viewBox="0 0 64 64">
		<path fill="var(--ifm-color-tech-logo-normal)" d="M32,26.4c3.1,0,5.6,2.5,5.6,5.6c0,3-2.5,5.5-5.6,5.5c-3.1,0-5.6-2.5-5.6-5.5C26.4,28.9,28.9,26.4,32,26.4
	 M18.2,55.8c1.9,1.1,6-0.6,10.7-5.1c-1.5-1.8-3.1-3.7-4.5-5.7c-2.4-0.2-4.8-0.6-7.1-1.1C15.8,50.4,16.3,54.8,18.2,55.8 M20.3,38.7
	l-0.9-1.5c-0.3,0.9-0.7,1.7-0.9,2.6c0.8,0.2,1.7,0.3,2.6,0.5L20.3,38.7 M39.8,36.5l2.4-4.5l-2.4-4.5c-0.9-1.6-1.8-3-2.7-4.4
	c-1.6-0.1-3.3-0.1-5.1-0.1c-1.8,0-3.5,0-5.1,0.1c-0.9,1.4-1.8,2.8-2.7,4.4L21.8,32l2.4,4.5c0.9,1.6,1.8,3,2.7,4.4
	c1.6,0.1,3.3,0.1,5.1,0.1c1.8,0,3.5,0,5.1-0.1C38,39.4,38.9,38,39.8,36.5 M32,16.5c-0.6,0.7-1.2,1.3-1.8,2.1h3.5
	C33.2,17.8,32.6,17.1,32,16.5 M32,47.5c0.6-0.7,1.2-1.3,1.8-2.1h-3.5C30.8,46.2,31.4,46.9,32,47.5 M45.8,8.2
	c-1.8-1.1-6,0.6-10.7,5.1c1.5,1.8,3.1,3.7,4.5,5.7c2.4,0.2,4.9,0.6,7.1,1.1C48.2,13.6,47.7,9.2,45.8,8.2 M43.7,25.3l0.9,1.5
	c0.3-0.9,0.7-1.7,0.9-2.6c-0.8-0.2-1.7-0.3-2.6-0.5L43.7,25.3 M48,4.3c4.4,2.5,4.9,9.1,3,16.8c7.6,2.2,13,5.9,13,11s-5.4,8.7-13,11
	c1.8,7.7,1.4,14.3-3,16.8c-4.3,2.5-10.3-0.4-16-5.8c-5.7,5.4-11.6,8.3-16,5.8c-4.3-2.5-4.8-9.1-3-16.8C5.4,40.7,0,37,0,32
	s5.4-8.7,13-11c-1.8-7.7-1.4-14.3,3-16.8c4.4-2.5,10.3,0.4,16,5.8C37.7,4.6,43.6,1.8,48,4.3 M47.1,32c1,2.2,1.9,4.5,2.6,6.7
	c6.3-1.9,9.8-4.6,9.8-6.7s-3.5-4.9-9.8-6.7C49,27.5,48.1,29.8,47.1,32 M16.9,32c-1-2.2-1.9-4.5-2.6-6.7C8,27.1,4.5,29.8,4.5,32
	s3.5,4.9,9.8,6.7C15,36.5,15.9,34.2,16.9,32 M43.7,38.7l-0.9,1.5c0.9-0.1,1.8-0.3,2.6-0.5c-0.2-0.8-0.5-1.7-0.9-2.6L43.7,38.7
	 M35.1,50.8c4.7,4.5,8.8,6.2,10.7,5.1c1.9-1,2.5-5.4,1-11.8c-2.3,0.5-4.7,0.8-7.1,1.1C38.1,47.1,36.6,49,35.1,50.8 M20.3,25.3
	l0.9-1.5c-0.9,0.1-1.8,0.3-2.6,0.5c0.2,0.8,0.5,1.7,0.9,2.6L20.3,25.3 M28.9,13.2c-4.7-4.5-8.8-6.2-10.7-5.1
	c-1.9,1-2.4,5.4-0.9,11.8c2.4-0.5,4.7-0.8,7.1-1.1C25.9,16.9,27.4,15,28.9,13.2z" />
	</symbol>
	<!-- Next.js -->
	<symbol id="next" viewBox="0 0 64 64">
		<path fill="var(--ifm-color-tech-logo-normal)" d="M29.9,0c-0.1,0-0.6,0.1-1,0.1c-9.1,0.8-17.6,5.7-23,13.3c-3,4.1-4.9,8.9-5.6,14C0,29.1,0,29.6,0,32c0,2.4,0,2.9,0.3,4.7
	c1.7,12,10.3,22.1,21.9,25.9c2.1,0.7,4.3,1.1,6.8,1.4c1,0.1,5.2,0.1,6.1,0c4.3-0.5,7.9-1.5,11.5-3.4c0.5-0.3,0.7-0.4,0.6-0.4
	c-0.1,0-2.4-3.2-5.2-7l-5.1-6.9l-6.4-9.5c-3.5-5.2-6.4-9.5-6.5-9.5c0,0-0.1,4.2-0.1,9.4c0,9,0,9.4-0.1,9.6c-0.2,0.3-0.3,0.4-0.6,0.6
	c-0.2,0.1-0.4,0.1-1.3,0.1h-1.1l-0.3-0.2c-0.2-0.1-0.3-0.3-0.4-0.5L20,46l0-12.5l0-12.5l0.2-0.2c0.1-0.1,0.3-0.3,0.5-0.4
	c0.3-0.1,0.4-0.1,1.4-0.1c1.3,0,1.5,0.1,1.8,0.4c0.1,0.1,3.6,5.3,7.7,11.6s9.8,14.9,12.6,19.1l5.1,7.7l0.3-0.2
	c2.3-1.5,4.7-3.6,6.6-5.8c4-4.6,6.6-10.3,7.5-16.4C64,34.9,64,34.4,64,32c0-2.4,0-2.9-0.3-4.7C62,15.3,53.4,5.2,41.8,1.5
	c-2-0.7-4.2-1.1-6.7-1.4C34.6,0,30.4,0,29.9,0L29.9,0z M43,19.4c0.3,0.2,0.5,0.4,0.6,0.7c0.1,0.2,0.1,3.6,0.1,11.5l0,11.2l-2-3l-2-3
	v-8.2c0-5.3,0-8.3,0.1-8.4c0.1-0.3,0.3-0.6,0.6-0.8c0.3-0.1,0.3-0.1,1.3-0.1C42.6,19.2,42.8,19.3,43,19.4z" />
	</symbol>
	<!-- Node.js -->
	<symbol id="node" viewBox="0 0 64 64">
		<path fill="var(--ifm-color-tech-logo-normal)" d="M32,64.1c-0.8,0-1.7-0.2-2.5-0.7l-7.9-4.7c-1.2-0.7-0.7-0.8-0.2-1c1.5-0.5,1.9-0.7,3.5-1.7c0.2-0.2,0.3,0,0.5,0
	l6.1,3.5c0.2,0.2,0.5,0.2,0.7,0L55.6,46c0.2-0.2,0.3-0.3,0.3-0.7V18.5c0-0.3-0.2-0.5-0.3-0.7L32.2,4.3c-0.2-0.2-0.5-0.2-0.7,0
	L8,17.8c-0.2,0.2-0.3,0.3-0.3,0.7v27c0,0.3,0.2,0.5,0.3,0.7l6.4,3.7c3.5,1.7,5.6-0.3,5.6-2.4V20.7c0-0.3,0.3-0.7,0.7-0.7h3
	c0.3,0,0.7,0.3,0.7,0.7v26.9c0,4.7-2.5,7.3-6.9,7.3c-1.4,0-2.4,0-5.4-1.5L6,49.7c-1.5-0.8-2.4-2.4-2.4-4.2v-27c0-1.7,1-3.4,2.5-4.2
	L29.6,0.7c1.5-0.8,3.5-0.8,4.9,0L58,14.2c1.5,0.8,2.5,2.5,2.5,4.2v27c0,1.7-1,3.4-2.5,4.2L34.5,63.2C33.7,63.9,32.8,64.1,32,64.1z
	 M50.9,37.4c0-5.1-3.4-6.4-10.6-7.4c-7.3-1-8.1-1.5-8.1-3.2c0-1.4,0.7-3.4,6.1-3.4c4.9,0,6.6,1,7.4,4.2c0,0.3,0.3,0.5,0.7,0.5h3
	c0.2,0,0.3,0,0.5-0.2c0.2-0.2,0.2-0.3,0.2-0.5c-0.5-5.6-4.2-8.3-11.8-8.3c-6.8,0-10.6,2.9-10.6,7.6c0,5.1,4.1,6.6,10.5,7.3
	c7.8,0.7,8.3,1.9,8.3,3.4c0,2.7-2.2,3.7-7.1,3.7c-6.3,0-7.6-1.5-8.1-4.7c0-0.3-0.3-0.5-0.7-0.5h-3c-0.3,0-0.7,0.3-0.7,0.7
	c0,3.9,2.2,8.6,12.5,8.6C46.7,45.3,50.9,42.5,50.9,37.4z" />
	</symbol>
	<!-- Deno -->
	<symbol id="deno" viewBox="0 0 64 64">
		<path fill="var(--ifm-color-tech-logo-normal)" d="M29.5,0c-0.1,0-0.6,0.1-1.1,0.1c-6.2,0.6-12.2,3.3-17.2,7.4c-0.9,0.8-3,2.8-3.7,3.7C3.4,16.2,1,21.6,0.1,28.1
		c-0.2,1.4-0.2,6.3,0,7.7c0.9,6.5,3.3,12,7.4,16.9c0.8,0.9,2.8,3,3.7,3.7c4.9,4.1,10.4,6.5,16.9,7.4c1.4,0.2,6.3,0.2,7.7,0
		c6.5-0.9,12-3.3,16.9-7.4c0.9-0.8,3-2.8,3.7-3.7c4.1-4.9,6.5-10.4,7.4-16.9c0.2-1.4,0.2-6.3,0-7.7c-0.9-6.5-3.3-12-7.4-16.9
		c-0.8-0.9-2.8-3-3.7-3.7C47.9,3.4,42.3,1,35.9,0.2C35.2,0.1,34.2,0,32.4,0C30.9,0,29.6,0,29.5,0L29.5,0z M29.9,3.4
		c0,0.9,0.1,2.9,0.1,4.8c0,0.9,0.1,2.3,0.1,3c0.1,2.5,0.3,8.9,0.4,9.5l0,0.6l-0.4,0c-0.2,0-0.4-0.1-0.4-0.1c0,0-0.1-0.6-0.1-1.2
		C29.6,17.1,29.1,6.2,29,4.6l0-1.7l0.2,0c0.1,0,0.3,0,0.4,0l0.2,0V3.4z M37.4,3.2c0,0,0,2.4,0.1,5.3c0,2.9,0.1,5.5,0.1,5.8
		c0,0.3,0,0.5,0,0.6c0,0-0.2,0-0.4,0l-0.4,0l-0.1-2.3c0-1.3-0.1-2.7-0.1-3.1c-0.1-1.4-0.1-6.1-0.1-6.2c0-0.1,0.1-0.1,0.4,0
		C37.2,3.2,37.4,3.2,37.4,3.2L37.4,3.2z M19.2,5.9c0,0.1,0.4,4.4,0.9,10.1c0.1,1.9,0.3,3.7,0.3,3.9c0,0.4,0,0.4-0.2,0.6
		c-0.1,0.1-0.3,0.2-0.3,0.2c0,0-0.1-0.2-0.1-0.5c-0.1-1-0.5-6-0.8-9.5c-0.2-2.1-0.3-4-0.4-4.2c0-0.3,0-0.4,0.2-0.5
		C19,5.8,19.1,5.8,19.2,5.9L19.2,5.9z M40.9,7.4c0.2,0.1,0.2,0.1,0.3,0.6c0.1,0.8,0.1,4.5,0,4.5c-0.2,0-0.7-0.3-0.7-0.4
		c0-0.1,0-1.2,0-2.5C40.3,7.1,40.3,7.3,40.9,7.4z M26.3,7.8c0,0.2,0.1,1.4,0.1,2.6s0.1,2.8,0.2,3.5c0.1,1.4,0.1,1.3-0.5,1.4
		c-0.3,0-0.3,0-0.3-0.4c0-0.2-0.1-0.9-0.1-1.5c0-0.6-0.1-2-0.2-3S25.4,8.2,25.4,8c0-0.4,0-0.4,0.2-0.5c0.1,0,0.3-0.1,0.5-0.1
		C26.3,7.4,26.3,7.4,26.3,7.8L26.3,7.8z M48.2,8.9L48.4,9l0.1,1.1c0,0.6,0,1.8,0,2.8l0,1.7l-0.3-0.2l-0.3-0.2l0-2.6
		c0-1.4,0-2.7,0-2.7C47.8,8.8,47.8,8.8,48.2,8.9z M33.8,9.9c0,0,0.2,3.9,0.2,5.8l0,1.2l-0.4-0.1c-0.2,0-0.4,0-0.4-0.1
		c0,0-0.3-5.8-0.3-6.4V9.8l0.4,0C33.6,9.9,33.8,9.9,33.8,9.9L33.8,9.9z M51.9,10.5c0.1,0.1,0.1,1.8,0.1,11.3c0,10.9,0,11.2-0.1,11.2
		c-0.1,0-0.2,0-0.3-0.1c-0.1-0.1-0.1-1-0.2-10.4c0-5.7-0.1-10.8-0.1-11.4l0-1.1l0.2,0.2C51.7,10.3,51.9,10.4,51.9,10.5L51.9,10.5z
		 M44.9,12.1c0,0,0.1,0.5,0.1,1c0,1.7,0,12.4,0,12.4c0,0-0.2,0-0.3-0.1l-0.3-0.1V11.9l0.2,0C44.7,12,44.8,12.1,44.9,12.1L44.9,12.1z
		 M23.1,12.5c0,0.2,0.1,0.7,0.1,1.1c0,0.4,0.1,1.3,0.1,2C23.4,17,23.4,17,23,17c-0.2,0-0.3,0-0.3-0.3c-0.1-0.5-0.4-4.3-0.3-4.4
		c0-0.1,0.4-0.2,0.6-0.2C23.1,12.2,23.1,12.3,23.1,12.5L23.1,12.5z M10.1,14.5c0.1,0.8,0.3,2.6,0.4,3.9c0.1,1.3,0.2,2.4,0.2,2.4
		c0,0.1-0.6,0.4-0.7,0.3c0,0-0.8-7-0.8-7.3c0-0.2,0.6-1,0.7-0.9C10,13,10,13.7,10.1,14.5L10.1,14.5z M41,15.4l0.2,0.1l0,1.7
		c0,0.9,0,2,0,2.3c0,0.7-0.1,0.8-0.5,0.7l-0.2-0.1v-0.7c0-0.4,0-1.5-0.1-2.4l0-1.7h0.2C40.7,15.2,40.9,15.3,41,15.4L41,15.4z
		 M13.6,18.4c0.1,1.5,0.4,4.1,0.5,5.7l0.3,2.9l-0.3,0.3l-0.3,0.3L13.7,27c0-0.3-0.2-2-0.4-3.6c-0.2-1.6-0.4-4-0.5-5.2l-0.2-2.3
		l0.3-0.3c0.3-0.3,0.3-0.3,0.4-0.1C13.3,15.6,13.4,16.9,13.6,18.4z M7.7,19.4c0.2,1.6,0.6,5.7,1,9.2C9.1,32,9.5,35.4,9.5,36
		c0.1,0.6,0.2,1.6,0.2,2.1c0.1,0.9,0.1,1,0,1.1c-0.2,0.1-0.3,0.1-0.3,0c0-0.1-0.1-0.7-0.2-1.3c-0.1-1.1-0.4-2.9-0.9-7
		C8.3,30,8.1,28.4,8,27.2c-0.2-1.2-0.4-3-0.5-3.9c-0.1-1-0.3-2.6-0.5-3.7c-0.1-1.1-0.2-2-0.2-2.1c0.1-0.2,0.5-1,0.6-0.9
		C7.3,16.5,7.5,17.8,7.7,19.4z M5.3,22.8c0.1,0.9,0.3,2.7,0.5,3.8c0.1,1.2,0.3,2.6,0.4,3.2l0.1,1.1l-0.2,0.1
		c-0.1,0.1-0.2,0.1-0.2,0.1s-0.1-0.3-0.1-0.7c0-0.3-0.3-2.4-0.7-4.5l-0.6-3.9l0.2-0.5C4.9,21.3,5,21.1,5,21.1
		C5,21.1,5.1,21.8,5.3,22.8z M48.5,21.7c0.1,0.1,0.1,0.6,0.1,4.2V30h-0.2c-0.5,0-0.5,0.1-0.5-4.4l0-4.1h0.3
		C48.2,21.6,48.4,21.7,48.5,21.7z M31.3,23.1c1.8,0.3,3.3,0.8,4.9,1.6c1,0.5,1.5,0.9,2.6,1.9c1.6,1.6,2.6,2.9,3.6,4.9
		c1.4,2.8,1.9,5.3,2.6,12c0.3,3,0.7,8.4,0.8,10.7c0,0.6,0.1,1.7,0.1,2.4c0.1,1.4,0.2,1.2-1,1.8c-1.7,0.8-3.3,1.4-5.5,1.9
		c-2.6,0.6-4.3,0.8-6.9,0.9l-1.9,0l0-0.9c0-0.5,0-1.7,0.1-2.6c0.2-4.4,0.2-9.9-0.1-13c-0.2-1.8-0.5-3.9-0.7-4.4
		c0-0.1,0.1-0.2,0.9-0.5c1.4-0.5,2.7-1.1,2.8-1.4c0.3-0.6-0.3-1.4-1-1.4c-0.1,0-0.5,0.1-0.9,0.3c-1.8,0.8-5.3,1.8-7.3,2
		c-1.4,0.1-3.6,0.1-5.1-0.2c-0.8-0.1-2.3-0.7-3.5-1.3c-1.4-0.7-2.3-1.7-2.6-2.9c-0.1-0.6-0.1-1.9,0.1-2.6c0.2-0.8,0.7-1.9,1.3-2.6
		c2.2-3,6.9-5.5,11.6-6.4C27.5,22.9,29.6,22.9,31.3,23.1L31.3,23.1z M55.5,23.4c0.3,0.1,0.3,0.1,0.3,0.4c0,2.1,0,7.1-0.1,7.3
		c0,0.1-0.4,0.1-0.6,0c-0.1,0-0.1-0.5-0.1-3.9c0-2.5,0-3.9,0.1-3.9C55.2,23.3,55.4,23.3,55.5,23.4L55.5,23.4z M59,27.7l0.3,0.1
		l-0.1,6.5c-0.1,8.3-0.1,8.5-0.4,9.3c-0.5,1.2-0.5,1.4-0.4-3.7c0-2.6,0.1-5.2,0.1-5.8s0-2.3,0-3.8c0-1.8,0-2.7,0.1-2.7
		C58.6,27.6,58.8,27.6,59,27.7z M11.6,29.7c0,0.6,0,0.7-0.2,1.2l-0.3,0.5l-0.1-0.8c-0.1-1.3-0.1-1.3,0.1-1.5
		c0.1-0.1,0.3-0.2,0.3-0.1S11.6,29.3,11.6,29.7L11.6,29.7z M6.8,34.4c0.1,0.6,0.6,4.9,0.9,7c0.4,3.3,0.5,3.7,0.3,3.5
		c0,0-0.2-1.1-0.4-2.4C6.3,34,6.3,34.1,6.4,34C6.6,33.9,6.7,34,6.8,34.4z M12.4,38c0,0.2,0.3,2.3,0.3,2.6c0,0.2-0.3,0.4-0.4,0.3
		c0,0-0.1-0.7-0.2-1.5c-0.1-0.8-0.2-1.6-0.2-1.8l0-0.4l0.3,0.3C12.3,37.7,12.4,37.9,12.4,38z M18.8,41c0.1,0.1,0.1,0.4,0.2,1.2
		c0.1,1.5,0.1,1.4-0.2,1.4c-0.3,0-0.3,0-0.4-1.4c-0.1-1.4-0.1-1.4,0.1-1.4C18.6,40.9,18.7,40.9,18.8,41z M25,41.1
		c0,0.1,0.1,0.6,0.1,1c0,0.5,0.1,1.6,0.2,2.5c0.2,3.2,0.2,3.6,0.1,3.6c-0.1,0-0.2-0.1-0.3-2.4c-0.1-0.9-0.2-2.4-0.3-3.3
		c-0.1-0.9-0.1-1.6-0.1-1.6C24.8,40.9,25,41,25,41.1L25,41.1z M10.2,42.6c0,0.1,0.3,2.6,0.7,6c0.1,1,0.2,2,0.2,2.2l0,0.3L11,51.1
		c-0.1-0.1-0.2-0.2-0.2-0.4c0-0.5-0.3-3.8-0.6-5.8c-0.1-1.1-0.3-2.1-0.3-2.2C10,42.5,10.2,42.5,10.2,42.6L10.2,42.6z M55.7,45.9
		l-0.1,3.3l-0.2,0.3C55,50.2,55,50.3,55,46.6l0-3.4l0.3-0.3c0.2-0.2,0.3-0.3,0.3-0.3C55.7,42.6,55.7,44.1,55.7,45.9L55.7,45.9z
		 M48.4,51.1c0,4.6,0,4.9-0.1,5.1c-0.1,0.1-0.1,0.1-0.2,0.1C48,56.2,48,46.3,48,46.2c0,0,0.1,0,0.2,0C48.3,46.2,48.3,46.8,48.4,51.1
		L48.4,51.1z M22.7,48c0.1,0.5,0.3,2.8,0.3,3.9c0,0.7,0,0.8-0.1,0.8c-0.1,0-0.2,0-0.2,0c-0.1-0.1-0.2-1.8-0.4-4.5l-0.1-0.6h0.2
		C22.6,47.6,22.6,47.6,22.7,48L22.7,48z M16.5,50.7c0.1,0.1,0.1,0.3,0.1,0.4c0,0.2,0.1,1.3,0.2,2.4c0.3,3,0.3,3.4,0.2,3.3
		c-0.2-0.1-0.4-0.3-0.3-0.3c0,0,0-0.4-0.1-0.9c-0.1-0.5-0.1-1.2-0.2-1.7c0-0.5-0.1-1.3-0.2-1.8c-0.1-1.4-0.1-1.5,0-1.5
		C16.3,50.7,16.4,50.7,16.5,50.7L16.5,50.7z M20.2,56c0,0.2,0.1,0.8,0.1,1.4c0.1,1.2,0,1.3-0.3,1c-0.1-0.1-0.2-0.4-0.3-1.3
		c-0.2-1.6-0.2-1.6,0.1-1.5C20.1,55.7,20.2,55.8,20.2,56z" />
		<path fill="var(--ifm-color-tech-logo-normal)" d="M17.4,26.9c-0.8,0.4-0.9,1.5-0.1,1.9c0.6,0.3,1.1,0.1,1.4-0.3C19.2,27.5,18.4,26.5,17.4,26.9L17.4,26.9z
		 M22.7,27.7c-0.8,0.5-0.8,1.6,0,2c0.7,0.4,1.7-0.1,1.7-1C24.4,27.8,23.5,27.2,22.7,27.7z" />
	</symbol>
	<!-- Flutter -->
	<symbol id="flutter" viewBox="0 0 64 64">
		<path fill="var(--ifm-color-tech-logo-normal)"
			d="M38.2,0l-32,32l9.9,9.9L57.8,0L38.2,0L38.2,0z M38.2,29.5L21,46.7L38.2,64h19.7L40.6,46.7l17.2-17.2L38.2,29.5L38.2,29.5z" />
	</symbol>
	<!-- Docker -->
	<symbol id="docker" viewBox="0 0 64 64">
		<path fill="var(--ifm-color-tech-logo-normal)" d="M63.4,26.4c-0.2-0.1-1.8-1.4-5.2-1.4c-0.9,0-1.8,0.1-2.7,0.2c-0.7-4.5-4.4-6.7-4.6-6.8L50,17.9l-0.6,0.9
	c-0.8,1.2-1.3,2.5-1.6,3.8c-0.6,2.6-0.2,5,1.1,7.1c-1.6,0.9-4.1,1.1-4.6,1.1H2c-1.1,0-2,0.9-2,2c0,3.7,0.6,7.4,1.8,10.8
	c1.5,3.8,3.6,6.6,6.4,8.3c3.1,1.9,8.3,3,14.1,3c2.6,0,5.2-0.2,7.8-0.7c3.6-0.7,7-1.9,10.2-3.7c2.6-1.5,5-3.4,7-5.7
	c3.3-3.8,5.3-8,6.8-11.7c0.2,0,0.4,0,0.6,0c3.7,0,5.9-1.5,7.1-2.7c0.8-0.8,1.5-1.7,1.9-2.8l0.3-0.8L63.4,26.4z M5.9,29.5h5.6
	c0.3,0,0.5-0.2,0.5-0.5l0,0v-5c0-0.3-0.2-0.5-0.5-0.5c0,0,0,0,0,0H5.9c-0.3,0-0.5,0.2-0.5,0.5c0,0,0,0,0,0v5
	C5.4,29.3,5.6,29.5,5.9,29.5L5.9,29.5 M13.7,29.5h5.6c0.3,0,0.5-0.2,0.5-0.5l0,0v-5c0-0.3-0.2-0.5-0.5-0.5c0,0,0,0,0,0h-5.6
	c-0.3,0-0.5,0.2-0.5,0.5v5C13.2,29.3,13.4,29.5,13.7,29.5 M21.6,29.5h5.6c0.3,0,0.5-0.2,0.5-0.5l0,0v-5c0-0.3-0.2-0.5-0.5-0.5
	c0,0,0,0,0,0h-5.6c-0.3,0-0.5,0.2-0.5,0.5c0,0,0,0,0,0v5C21.1,29.3,21.3,29.5,21.6,29.5L21.6,29.5 M29.4,29.5h5.6
	c0.3,0,0.5-0.2,0.5-0.5v-5c0-0.3-0.2-0.5-0.5-0.5l0,0h-5.6c-0.3,0-0.5,0.2-0.5,0.5c0,0,0,0,0,0v5C28.9,29.3,29.1,29.5,29.4,29.5
	L29.4,29.5 M13.7,22.3h5.6c0.3,0,0.5-0.2,0.5-0.5v-5c0-0.3-0.2-0.5-0.5-0.5l0,0h-5.6c-0.3,0-0.5,0.2-0.5,0.5v5
	C13.2,22.1,13.4,22.3,13.7,22.3 M21.6,22.3h5.6c0.3,0,0.5-0.2,0.5-0.5v-5c0-0.3-0.2-0.5-0.5-0.5l0,0h-5.6c-0.3,0-0.5,0.2-0.5,0.5
	l0,0v5C21.1,22.1,21.3,22.3,21.6,22.3 M29.4,22.3h5.6c0.3,0,0.5-0.2,0.5-0.5v-5c0-0.3-0.2-0.5-0.5-0.5h-5.6c-0.3,0-0.5,0.2-0.5,0.5
	l0,0v5C28.9,22.1,29.1,22.3,29.4,22.3 M29.4,15.1h5.6c0.3,0,0.5-0.2,0.5-0.5v-5c0-0.3-0.2-0.5-0.5-0.5h-5.6c-0.3,0-0.5,0.2-0.5,0.5
	l0,0v5C28.9,14.8,29.1,15.1,29.4,15.1 M37.3,29.5h5.6c0.3,0,0.5-0.2,0.5-0.5v-5c0-0.3-0.2-0.5-0.5-0.5l0,0h-5.6
	c-0.3,0-0.5,0.2-0.5,0.5c0,0,0,0,0,0v5C36.8,29.3,37,29.5,37.3,29.5" />
	</symbol>
</svg>