<svg xmlns="http://www.w3.org/2000/svg" display="none">
	<!-- Javascript -->
	<symbol id="javascript" viewBox="0 0 64 64">
		<path fill="var(--ifm-color-tech-logo-normal)"
			d="M0,0h64v64H0V0 M16.8,53.5c1.4,3,4.2,5.5,9,5.5c5.3,0,9-2.8,9-9.1V29.4h-6v20.4c0,3.1-1.2,3.8-3.2,3.8
	c-2.1,0-2.9-1.4-3.9-3.1L16.8,53.5 M38.1,52.8c1.8,3.5,5.4,6.2,11,6.2c5.7,0,10-3,10-8.4c0-5-2.9-7.3-8-9.5l-1.5-0.6
	c-2.6-1.1-3.7-1.8-3.7-3.6c0-1.5,1.1-2.6,2.9-2.6c1.7,0,2.8,0.7,3.9,2.6l4.7-3.1c-2-3.4-4.7-4.7-8.5-4.7c-5.4,0-8.8,3.4-8.8,7.9
	c0,4.9,2.9,7.2,7.2,9.1l1.5,0.6c2.8,1.2,4.4,2,4.4,4c0,1.7-1.6,3-4.1,3c-3,0-4.7-1.5-5.9-3.7C43,50,38.1,52.8,38.1,52.8z" />
	</symbol>
	<!-- Vue -->
	<symbol id="vue" viewBox="0 0 64 64">
		<path fill="var(--ifm-color-tech-logo-lighter)" d="M39.3,4.6L32,17.3L24.7,4.6H0.4L32,59.4L63.6,4.6H39.3z" />
		<path fill="var(--ifm-color-tech-logo)" d="M39.3,4.6L32,17.3L24.7,4.6H13l19,32.8L51,4.6H39.3z" />
	</symbol>
	<!-- Nuxt.js -->
	<symbol id="nuxt" viewBox="0 0 64 64">
		<path fill="var(--ifm-color-tech-logo-normal)" d="M52.6,54.1l0.1-0.1c0.1-0.1,0.1-0.2,0.1-0.3l0,0C53,53.1,53,52.5,53,52l0,0c-0.1-0.6-0.3-1.2-0.6-1.7l0,0L38.2,25.4L36,21.6
	l-2.2,3.8L19.7,50.4c-0.3,0.5-0.5,1-0.5,1.6l0,0c-0.1,0.6,0,1.3,0.2,1.9l0,0c0,0.1,0.1,0.2,0.1,0.3l0,0c0.4,0.7,1.3,1.6,3.3,1.6
	h26.4C49.6,55.8,51.7,55.7,52.6,54.1L52.6,54.1z M36,29.2l13,22.8H23L36,29.2z M63.3,50.4l-18.7-33c-0.2-0.3-1.3-2.1-3.2-2.1
	c-0.8,0-2.1,0.4-3,2.1L36,21.6l2.2,3.8l3.3-5.9L60,52h-7c0.1,0.5,0,1.1-0.2,1.6l0,0c0,0.1-0.1,0.2-0.2,0.3l0,0l-0.1,0.1
	c-0.9,1.6-3,1.7-3.4,1.7h11c0.4,0,2.4-0.1,3.4-1.7C64,53.3,64.3,52.1,63.3,50.4L63.3,50.4z M19.5,54.2c0-0.1-0.1-0.2-0.1-0.2l0,0
	c-0.3-0.6-0.3-1.3-0.2-1.9l0,0H4l22.5-39.6l7.4,13l2.1-3.8l-6.4-11.3c-0.2-0.3-1.3-2.1-3.1-2.1c-0.8,0-2.1,0.4-3,2.1l-22.8,40
	c-0.2,0.3-1.1,2.2-0.2,3.8c0.4,0.7,1.3,1.6,3.3,1.6h19.1C20.8,55.8,19.9,54.9,19.5,54.2L19.5,54.2z" />
	</symbol>
	<!-- React.js -->
	<symbol id="react" viewBox="0 0 64 64">
		<path fill="var(--ifm-color-tech-logo-normal)" d="M32,26.4c3.1,0,5.6,2.5,5.6,5.6c0,3-2.5,5.5-5.6,5.5c-3.1,0-5.6-2.5-5.6-5.5C26.4,28.9,28.9,26.4,32,26.4
	 M18.2,55.8c1.9,1.1,6-0.6,10.7-5.1c-1.5-1.8-3.1-3.7-4.5-5.7c-2.4-0.2-4.8-0.6-7.1-1.1C15.8,50.4,16.3,54.8,18.2,55.8 M20.3,38.7
	l-0.9-1.5c-0.3,0.9-0.7,1.7-0.9,2.6c0.8,0.2,1.7,0.3,2.6,0.5L20.3,38.7 M39.8,36.5l2.4-4.5l-2.4-4.5c-0.9-1.6-1.8-3-2.7-4.4
	c-1.6-0.1-3.3-0.1-5.1-0.1c-1.8,0-3.5,0-5.1,0.1c-0.9,1.4-1.8,2.8-2.7,4.4L21.8,32l2.4,4.5c0.9,1.6,1.8,3,2.7,4.4
	c1.6,0.1,3.3,0.1,5.1,0.1c1.8,0,3.5,0,5.1-0.1C38,39.4,38.9,38,39.8,36.5 M32,16.5c-0.6,0.7-1.2,1.3-1.8,2.1h3.5
	C33.2,17.8,32.6,17.1,32,16.5 M32,47.5c0.6-0.7,1.2-1.3,1.8-2.1h-3.5C30.8,46.2,31.4,46.9,32,47.5 M45.8,8.2
	c-1.8-1.1-6,0.6-10.7,5.1c1.5,1.8,3.1,3.7,4.5,5.7c2.4,0.2,4.9,0.6,7.1,1.1C48.2,13.6,47.7,9.2,45.8,8.2 M43.7,25.3l0.9,1.5
	c0.3-0.9,0.7-1.7,0.9-2.6c-0.8-0.2-1.7-0.3-2.6-0.5L43.7,25.3 M48,4.3c4.4,2.5,4.9,9.1,3,16.8c7.6,2.2,13,5.9,13,11s-5.4,8.7-13,11
	c1.8,7.7,1.4,14.3-3,16.8c-4.3,2.5-10.3-0.4-16-5.8c-5.7,5.4-11.6,8.3-16,5.8c-4.3-2.5-4.8-9.1-3-16.8C5.4,40.7,0,37,0,32
	s5.4-8.7,13-11c-1.8-7.7-1.4-14.3,3-16.8c4.4-2.5,10.3,0.4,16,5.8C37.7,4.6,43.6,1.8,48,4.3 M47.1,32c1,2.2,1.9,4.5,2.6,6.7
	c6.3-1.9,9.8-4.6,9.8-6.7s-3.5-4.9-9.8-6.7C49,27.5,48.1,29.8,47.1,32 M16.9,32c-1-2.2-1.9-4.5-2.6-6.7C8,27.1,4.5,29.8,4.5,32
	s3.5,4.9,9.8,6.7C15,36.5,15.9,34.2,16.9,32 M43.7,38.7l-0.9,1.5c0.9-0.1,1.8-0.3,2.6-0.5c-0.2-0.8-0.5-1.7-0.9-2.6L43.7,38.7
	 M35.1,50.8c4.7,4.5,8.8,6.2,10.7,5.1c1.9-1,2.5-5.4,1-11.8c-2.3,0.5-4.7,0.8-7.1,1.1C38.1,47.1,36.6,49,35.1,50.8 M20.3,25.3
	l0.9-1.5c-0.9,0.1-1.8,0.3-2.6,0.5c0.2,0.8,0.5,1.7,0.9,2.6L20.3,25.3 M28.9,13.2c-4.7-4.5-8.8-6.2-10.7-5.1
	c-1.9,1-2.4,5.4-0.9,11.8c2.4-0.5,4.7-0.8,7.1-1.1C25.9,16.9,27.4,15,28.9,13.2z" />
	</symbol>
	<!-- Next.js -->
	<symbol id="next" viewBox="0 0 64 64">
		<path fill="var(--ifm-color-tech-logo-normal)" d="M29.9,0c-0.1,0-0.6,0.1-1,0.1c-9.1,0.8-17.6,5.7-23,13.3c-3,4.1-4.9,8.9-5.6,14C0,29.1,0,29.6,0,32c0,2.4,0,2.9,0.3,4.7
	c1.7,12,10.3,22.1,21.9,25.9c2.1,0.7,4.3,1.1,6.8,1.4c1,0.1,5.2,0.1,6.1,0c4.3-0.5,7.9-1.5,11.5-3.4c0.5-0.3,0.7-0.4,0.6-0.4
	c-0.1,0-2.4-3.2-5.2-7l-5.1-6.9l-6.4-9.5c-3.5-5.2-6.4-9.5-6.5-9.5c0,0-0.1,4.2-0.1,9.4c0,9,0,9.4-0.1,9.6c-0.2,0.3-0.3,0.4-0.6,0.6
	c-0.2,0.1-0.4,0.1-1.3,0.1h-1.1l-0.3-0.2c-0.2-0.1-0.3-0.3-0.4-0.5L20,46l0-12.5l0-12.5l0.2-0.2c0.1-0.1,0.3-0.3,0.5-0.4
	c0.3-0.1,0.4-0.1,1.4-0.1c1.3,0,1.5,0.1,1.8,0.4c0.1,0.1,3.6,5.3,7.7,11.6s9.8,14.9,12.6,19.1l5.1,7.7l0.3-0.2
	c2.3-1.5,4.7-3.6,6.6-5.8c4-4.6,6.6-10.3,7.5-16.4C64,34.9,64,34.4,64,32c0-2.4,0-2.9-0.3-4.7C62,15.3,53.4,5.2,41.8,1.5
	c-2-0.7-4.2-1.1-6.7-1.4C34.6,0,30.4,0,29.9,0L29.9,0z M43,19.4c0.3,0.2,0.5,0.4,0.6,0.7c0.1,0.2,0.1,3.6,0.1,11.5l0,11.2l-2-3l-2-3
	v-8.2c0-5.3,0-8.3,0.1-8.4c0.1-0.3,0.3-0.6,0.6-0.8c0.3-0.1,0.3-0.1,1.3-0.1C42.6,19.2,42.8,19.3,43,19.4z" />
	</symbol>
	<!-- Flutter -->
	<symbol id="flutter" viewBox="0 0 64 64">
		<path fill="var(--ifm-color-tech-logo-normal)"
			d="M38.2,0l-32,32l9.9,9.9L57.8,0L38.2,0L38.2,0z M38.2,29.5L21,46.7L38.2,64h19.7L40.6,46.7l17.2-17.2L38.2,29.5L38.2,29.5z" />
	</symbol>
	<!-- Docker -->
	<symbol id="docker" viewBox="0 0 64 64">
		<path fill="var(--ifm-color-tech-logo-normal)" d="M63.4,26.4c-0.2-0.1-1.8-1.4-5.2-1.4c-0.9,0-1.8,0.1-2.7,0.2c-0.7-4.5-4.4-6.7-4.6-6.8L50,17.9l-0.6,0.9
	c-0.8,1.2-1.3,2.5-1.6,3.8c-0.6,2.6-0.2,5,1.1,7.1c-1.6,0.9-4.1,1.1-4.6,1.1H2c-1.1,0-2,0.9-2,2c0,3.7,0.6,7.4,1.8,10.8
	c1.5,3.8,3.6,6.6,6.4,8.3c3.1,1.9,8.3,3,14.1,3c2.6,0,5.2-0.2,7.8-0.7c3.6-0.7,7-1.9,10.2-3.7c2.6-1.5,5-3.4,7-5.7
	c3.3-3.8,5.3-8,6.8-11.7c0.2,0,0.4,0,0.6,0c3.7,0,5.9-1.5,7.1-2.7c0.8-0.8,1.5-1.7,1.9-2.8l0.3-0.8L63.4,26.4z M5.9,29.5h5.6
	c0.3,0,0.5-0.2,0.5-0.5l0,0v-5c0-0.3-0.2-0.5-0.5-0.5c0,0,0,0,0,0H5.9c-0.3,0-0.5,0.2-0.5,0.5c0,0,0,0,0,0v5
	C5.4,29.3,5.6,29.5,5.9,29.5L5.9,29.5 M13.7,29.5h5.6c0.3,0,0.5-0.2,0.5-0.5l0,0v-5c0-0.3-0.2-0.5-0.5-0.5c0,0,0,0,0,0h-5.6
	c-0.3,0-0.5,0.2-0.5,0.5v5C13.2,29.3,13.4,29.5,13.7,29.5 M21.6,29.5h5.6c0.3,0,0.5-0.2,0.5-0.5l0,0v-5c0-0.3-0.2-0.5-0.5-0.5
	c0,0,0,0,0,0h-5.6c-0.3,0-0.5,0.2-0.5,0.5c0,0,0,0,0,0v5C21.1,29.3,21.3,29.5,21.6,29.5L21.6,29.5 M29.4,29.5h5.6
	c0.3,0,0.5-0.2,0.5-0.5v-5c0-0.3-0.2-0.5-0.5-0.5l0,0h-5.6c-0.3,0-0.5,0.2-0.5,0.5c0,0,0,0,0,0v5C28.9,29.3,29.1,29.5,29.4,29.5
	L29.4,29.5 M13.7,22.3h5.6c0.3,0,0.5-0.2,0.5-0.5v-5c0-0.3-0.2-0.5-0.5-0.5l0,0h-5.6c-0.3,0-0.5,0.2-0.5,0.5v5
	C13.2,22.1,13.4,22.3,13.7,22.3 M21.6,22.3h5.6c0.3,0,0.5-0.2,0.5-0.5v-5c0-0.3-0.2-0.5-0.5-0.5l0,0h-5.6c-0.3,0-0.5,0.2-0.5,0.5
	l0,0v5C21.1,22.1,21.3,22.3,21.6,22.3 M29.4,22.3h5.6c0.3,0,0.5-0.2,0.5-0.5v-5c0-0.3-0.2-0.5-0.5-0.5h-5.6c-0.3,0-0.5,0.2-0.5,0.5
	l0,0v5C28.9,22.1,29.1,22.3,29.4,22.3 M29.4,15.1h5.6c0.3,0,0.5-0.2,0.5-0.5v-5c0-0.3-0.2-0.5-0.5-0.5h-5.6c-0.3,0-0.5,0.2-0.5,0.5
	l0,0v5C28.9,14.8,29.1,15.1,29.4,15.1 M37.3,29.5h5.6c0.3,0,0.5-0.2,0.5-0.5v-5c0-0.3-0.2-0.5-0.5-0.5l0,0h-5.6
	c-0.3,0-0.5,0.2-0.5,0.5c0,0,0,0,0,0v5C36.8,29.3,37,29.5,37.3,29.5" />
	</symbol>
</svg>